<?xml version="1.0" encoding="utf-8"?>
<!-- Generator: Adobe Illustrator 22.0.1, SVG Export Plug-In . SVG Version: 6.00 Build 0)  -->
<svg version="1.1" id="Layer_1" xmlns="http://www.w3.org/2000/svg" xmlns:xlink="http://www.w3.org/1999/xlink" x="0px" y="0px"
	 viewBox="0 0 135 65" style="enable-background:new 0 0 135 65;" xml:space="preserve">
<style type="text/css">
	.st0{filter:url(#Adobe_OpacityMaskFilter);}
	.st1{fill:#FFFFFF;}
	.st2{mask:url(#mask-2_1_);fill:#265596;}
	.st3{filter:url(#Adobe_OpacityMaskFilter_1_);}
	.st4{mask:url(#mask-2_2_);fill:#265596;}
	.st5{fill:#2CB2A3;}
	.st6{fill:#1C2145;}
	.st7{fill:#001E60;}
	.st8{filter:url(#Adobe_OpacityMaskFilter_2_);}
	.st9{mask:url(#mask-4_1_);fill:#001E60;}
	.st10{filter:url(#Adobe_OpacityMaskFilter_3_);}
	.st11{mask:url(#mask-4_2_);fill:#001E60;}
</style>
<title>RGB_LAC_LOGO</title>
<desc>Created with Sketch.</desc>
<g id="Group-4" transform="translate(33.503650, 44.626866)">
	<g id="Clip-2">
	</g>
	<defs>
		<filter id="Adobe_OpacityMaskFilter" filterUnits="userSpaceOnUse" x="75.4" y="0.1" width="23.2" height="13.7">
			<feColorMatrix  type="matrix" values="1 0 0 0 0  0 1 0 0 0  0 0 1 0 0  0 0 0 1 0"/>
		</filter>
	</defs>
	<mask maskUnits="userSpaceOnUse" x="75.4" y="0.1" width="23.2" height="13.7" id="mask-2_1_">
		<g class="st0">
			<polygon id="path-1_1_" class="st1" points="0,0.1 98.5,0.1 98.5,19.5 0,19.5 			"/>
		</g>
	</mask>
	<path id="Fill-1" class="st2" d="M85,12.2L85,12.1C85,12.1,85,12.2,85,12.2C85.1,12.2,85,12.2,85,12.2z M98.5,4.1
		c-0.1,0.1-0.2,0-0.3,0c0.3-1.3,0.2-3.3-1.3-4.1c0.3,0.7-0.6,1.6,0.2,2.4c-0.4,0.1,0,0.6-0.6,0.6c-0.5,0.7,0.2,1.5-0.3,2.3
		c-0.1,0-0.1,0-0.2,0l-0.1,0c0.1,0.6-0.2,0.4-0.5,0.7c0,0-0.2,0.4-0.2,0.4c-0.1,0.1-0.2-0.1-0.3,0C95,6.4,95,6.7,95,6.8
		c-0.2,0.2-0.3,0.3-0.5,0.5c-0.1,0.1-0.1,0.2-0.2,0.2c-0.1,0.1-0.2,0.3-0.3,0.4C94,8,93.9,8.1,93.7,8.1c0,0-1.3-0.8-0.5,0
		c0,0-0.4,0-0.5,0c0,0-0.1,0-0.1,0c0,0-0.1-0.1-0.2-0.1c-0.1,0-0.3-0.1-0.4,0c-0.2,0-0.3,0.1-0.4,0.1c0.1,0.2,0.3,0.1,0.1,0.2
		c-0.4-0.1-0.3-0.4-0.3-0.5c-0.1,0.3-0.2,0.1-0.2,0.4c-0.2,0-0.1,0.2-0.2,0.1c0,0-0.2-0.1-0.2-0.1c0-0.1-0.2,0.1-0.3,0.1
		c-0.1-0.1-0.1-0.3-0.2-0.4c-0.1-0.5,0.5-0.9,0.3-0.9l-0.3,0.2c-0.1-0.1-0.1-0.3-0.2-0.3c-0.1,0,0.2-0.2,0.1-0.3c0,0,0-0.1,0-0.1
		c0,0,0-0.1,0-0.1c-0.1,0-0.1,0-0.2,0.1c0,0,0,0.1,0,0.1c0,0-0.1,0-0.1,0.1c0,0,0,0,0,0.1c0,0,0,0.1,0,0.1c0,0.1-0.2,0-0.2,0
		c0,0-0.5,0.2-0.5,0.2c0,0-0.1,0-0.1,0c-0.1,0,0.1,0.2,0.1,0.2c-0.1,0,0,0.1-0.1,0.1c0,0,0,0,0,0c0,0,0-0.1,0-0.1
		c-0.1,0.1,0-0.2-0.1-0.1c0.1,0.1-0.1,0,0,0.1c-0.2,0.3-0.2,0.4-0.4,0.2c-0.6,0.5,0.4,0.3,0.1,0.5c-0.6-0.2-0.4,0.1-1-0.3l0.2,0.4
		c-0.4-0.3-0.1,0.4-0.5,0.3c-0.1-0.1,0.2,0.6-1.2,0l-0.1-0.6c-0.2,0.1,0-0.3,0.7-0.4c-0.6-0.1-0.9,0.3-1.2,0.7c0,0-0.1,0.5,0,0.8
		l-0.3,0.4l-1,0c-0.2,0-0.4-0.6-0.3-0.4c-0.3,0.2,0-0.2-0.6,0.7c0.1,0.6-0.5,0.4-0.9,0.5c-1.7,0.1-4.5,1.1-6.1,1.8
		c-0.2,0-0.6,0.6-1,0.8c0.4,0.2,0.5-0.1,0.9-0.1c0.3,0.1,0.3,0.3,0.6,0.6c0.4-0.4,0.3,0.2,0.6-0.3c0,0,1.8-0.1,2,0.1
		c0.2,0.2,0.5,0.5,0.5,0.5c0.2,0.3,0.6-0.1,0.8,0.1c0.1,0,0.3-0.2,0.6-0.4c0.2-0.1,0.1-0.1,0.4-0.2l0.5,0.2l0.1-0.4l0.5,0
		c-0.1-1.1,0.9,0.1,1.2-0.6c0.1-0.1,0.6,0.4,0.9,0.2L85,12.3l0.2,0c0.4,0.1,0.8,0.1,1.2,0.5l0,0c0,0,0,0,0,0c0,0,0.1,0.1,0.1,0.1
		c0.1-0.5,0.6,0.4,0.5,0.1c0.1-0.1,0.1-0.2,0.2-0.3c0,0,0.1,0,0.1,0c0,0,0-0.1,0.1-0.1c0.1,0,0.2,0.1,0.3,0.1c0,0,0.1,0,0.1,0.1
		c0,0.2,0.2,0,0.1,0.1c0.1,0.1,0-0.2,0.1-0.1c0,0,0-0.1,0-0.1c0,0,0,0,0,0c0.1,0,0,0.1,0.1,0.1c0,0,0,0.1,0,0.2l-0.2,0l0.2,0
		c0,0,0,0,0,0c0,0,0,0,0,0l0.4,0.1c0,0.1,0.2,0.1,0.3,0c0.1,0,0.1,0,0.1-0.1c0,0,0,0,0,0c0,0,0,0,0,0.1c0,0,0.1,0,0.1,0
		c0,0,0,0.1,0,0.1c0.1,0,0.1,0,0.2,0c0,0,0-0.1-0.1-0.1c0,0,0-0.1,0-0.1c0,0-0.1-0.1-0.2-0.1c0.1,0,0.1-0.1,0.1-0.1
		c0.1-0.1,0.2-0.2-0.1-0.2c0,0,0-0.1,0-0.1l0.4,0.2c0.2,0-0.4-0.2-0.5-0.7c0.1-0.1,0.3-0.2,0.3-0.2c0.1-0.4,0.3-0.3,0.5-0.3
		c0,0,0.1,0,0.2,0.2c0,0,0-0.1,0-0.2c0.1,0,0.2-0.1,0.3-0.1c0.1,0,0.1,0,0.2,0c0,0,0.1,0,0.1,0c0.8,0,1.8-0.3,2.8-0.3l-0.1-0.2
		c0.6,0.2,0.8-0.3,1.3-0.4l-0.3-0.1c0.1-0.4,0.5-0.7,0.8-0.8c-0.3,0.3,0.2,0.4,0.2,0.4c0.8-0.4-0.1-0.3,0-0.6
		c0.5,0.1,1.2-0.4,1.3-0.5c0.3,0.1,0-0.3,0.4-0.7l0.1,0.1C97.5,6.8,98.5,5.6,98.5,4.1z"/>
	<defs>
		<filter id="Adobe_OpacityMaskFilter_1_" filterUnits="userSpaceOnUse" x="0" y="9.8" width="77.8" height="9.8">
			<feColorMatrix  type="matrix" values="1 0 0 0 0  0 1 0 0 0  0 0 1 0 0  0 0 0 1 0"/>
		</filter>
	</defs>
	<mask maskUnits="userSpaceOnUse" x="0" y="9.8" width="77.8" height="9.8" id="mask-2_2_">
		<g class="st3">
			<polygon id="path-1_2_" class="st1" points="0,0.1 98.5,0.1 98.5,19.5 0,19.5 			"/>
		</g>
	</mask>
	<path id="Fill-3" class="st4" d="M77.5,15.9l-3.1,0.8c-1.5-0.4-1.9-0.6-3.2,0c-0.7-0.5-1.9,0-2.1-0.7c-2.8-0.6-4,0.5-6.6,0.5
		c-0.4-0.1-0.2,0.1-0.3-0.2l0-0.1c-2.6,0.9-4.2,0-6.8,0.5l-0.5,0.2c-0.2,0-0.5,0-0.7,0c-0.6,0-1,0-1.2-0.3c0-0.2-0.1-0.3,0.2-0.4
		c-0.3-0.2-0.4,0.5-0.7,0.7c-0.1,0.1,0-0.2-0.3-0.3c0,0-0.1-0.2,0.3-0.5c0.4-0.3-0.3-0.1-0.3-0.1C52,16.2,52,16,51.8,16
		c-0.1,0-0.3,0.3-0.4,0.3c-0.2,0-0.4-0.1-0.5-0.1c0,0-0.1,0-0.1,0c-0.2-0.1-0.4-0.1-0.6-0.1c-0.1,0-0.2,0-0.4,0.1
		c-0.3-0.4,0.4-0.4,0.5-0.3c-0.5-0.2,0.6-0.5-0.7-0.1l0.5-0.4c-0.2,0.1-0.5-0.1-0.7-0.3c0.3,0.2-0.1,0.4-0.4,0.1
		c0,0-0.1-0.1-0.1-0.1c-0.1-0.1-0.1-0.2-0.2-0.2c-0.1-0.1-0.1-0.1-0.1-0.2c0,0,0,0.1,0,0.2c0,0,0,0.1,0,0.1c0,0.1-0.3,0.1-0.1,0.3
		c-0.1,0.1-0.2,0.1-0.5,0.1c0.2-0.2-0.1-0.5-0.4-0.2c-0.4,0.1-0.1,0.5-0.7,0.4c-0.1-0.3,0.4-0.1,0.3-0.5c-0.4,0.2-0.3,0-0.5-0.1
		l-0.5,0.2c0,0.1-0.1,0.1-0.3,0.3c-0.4-0.1-0.4-0.2-0.3-0.3c0.1-0.1,0.3-0.1,0.3-0.2c0,0,0-0.1-0.1-0.2c0.7-0.2,1.1-0.3,0.8-0.5
		L46,13.9c0.1-0.3-0.9-0.6-0.1-0.8c-0.7-0.2-1.5-0.3-2.3-0.3c-0.2,0-0.4,0.3-0.7,0.3c-0.3,0-0.6-0.3-1-0.3c-1-0.2-0.6,0-0.9,0.1
		c0.2,0.1,0.5,0.2,0.4,0.4c-0.8,0.1-0.6-0.2-0.8-0.5c-0.1,0-0.1,0.1-0.2,0.1c0,0-0.1,0.1-0.1,0.1c-0.1,0.1-0.2,0-0.2,0.1
		c0,0.1-0.1,0.1-0.2,0.2c-0.1,0.2,0.1,0.1,0,0.2c0,0,0,0.1-0.1,0.1c0,0-0.2,0-0.2,0c0,0.1,0.1,0.2,0,0.2c-0.4-0.2-0.5-0.4-0.7-0.5
		c-0.1-0.1-0.4,0-0.4-0.1c-0.2-0.4-0.4-0.1-0.7,0c-0.5,0.1-0.4,0.2-0.4,0.2c-0.7-0.4-0.8,0.3-1.5,0c0-0.1,0.6-0.1,0.5-0.3
		c-0.2,0-0.3,0-0.4-0.1c0,0-0.1,0-0.2,0c0,0,0,0-0.1,0c0,0-0.1-0.1-0.1-0.2c-0.1-0.1-0.3,0-0.5,0l0.2-0.2l0,0l0.2,0l0-0.1l0.1-0.1
		l0-0.1c-0.2,0-0.2,0-0.4,0c-0.1,0-0.3-0.2-0.4,0c-0.1,0-0.1,0-0.2,0c-0.1,0-0.2-0.1-0.1-0.2c0,0,0-0.1,0.1-0.1
		c-0.1,0.1-0.4-0.1-0.3,0.1c0,0-0.1,0-0.1,0c-0.3,0.1-0.6,0.2-0.9,0.2c0,0-0.1,0-0.1,0c-0.1,0-0.2,0-0.4,0c0,0,0,0-0.1,0
		c-0.2,0-0.4,0-0.7,0.1c-0.1,0-0.1,0-0.2,0c-0.3,0-0.7,0.1-0.9,0.2l0-0.3c-0.4-0.2-0.6,0.1-1.1,0.1c0,0-0.1,0-0.1,0
		c-0.1,0-0.1,0-0.2,0c-0.1,0-0.1,0-0.2,0c0,0-0.1,0-0.1,0c-0.1,0-0.1,0-0.2,0c-0.1,0-0.1,0-0.2,0c-0.1,0-0.2,0.1-0.3,0.1
		c-0.1,0.1-0.2,0.1-0.2,0.2l-0.1-0.2l-0.2,0.1l-0.2,0.1L28.1,13c0,0-0.1-0.2-0.4,0c-0.3,0.1-0.2,0.4-0.2,0.4c-0.2,0-0.3-0.1-0.3-0.2
		c-0.1-0.2,0.4-0.2,0.1-0.5c-0.3,0.3-0.2-0.1-0.7,0c-0.1,0,0,0.3-0.1,0.3c-0.1,0-0.2,0-0.3,0c-0.1,0-0.2-0.5-0.3-0.1
		c-0.2,0-0.4,0-0.6,0c-0.1,0-0.2,0.2-0.4,0.2c-0.2,0-0.3,0-0.5-0.1c0,0.1-0.3,0.1-0.3,0.2c0,0.1,0.2,0.1,0.1,0.2
		c-0.1,0.1-0.1,0.1-0.2,0.2c0,0-0.1,0.1-0.2,0.1c-0.1,0.1-0.2,0.1-0.3,0.2c-0.1,0-0.2,0.1-0.3,0.1c-0.1,0-0.2,0.1-0.4,0.1
		c-0.2,0.1-0.5,0.1-0.7,0.2c-0.1,0-0.1-0.1-0.2-0.2c-0.1-0.1-2.3-0.1-2.4-0.2c-2-0.5-2.1-0.1-3.6-0.4c-0.1,0-1.5,0-1.6,0
		c-0.3-0.1-0.4,0.2-0.8,0.1c-0.1,0-0.4-0.1-0.7,0c-0.3,0.1-0.8-0.1-1.1,0c-0.2,0.1-0.4,0.1-0.5,0.1c-0.4-0.1-0.4,0.1-0.7,0.1
		c-0.1,0-0.3-0.2-0.6-0.3c-0.3-0.1-0.4,0.2-0.7,0.1c-0.1,0-0.4-0.3-0.5-0.3c-0.1,0-0.2,0-0.2,0c-0.2,0-0.5-0.8-0.7-0.8
		c0,0-0.1,0-0.2-0.1c-0.1-0.1-0.6,0-0.7,0c-0.1,0-0.3-0.3-0.5-0.3c-0.2,0-0.4,0-0.5-0.1c-1-0.1-1.1-0.5-2.3-0.5
		C2.8,11.2,1.2,9.6,0,9.8c1.9,0.2,1.5,2.2,2.7,2.3c0.8,0.3,0.8,0.9,1.3,1.4L4,13c1.5-0.2,0.7,0.4,2,0.1l-0.6,0.8
		c0.3-0.2,0.4-0.1,0.9-0.1c-0.1,0.9,0.4,0.3,0.5,0.5l0.7-0.5c0.1,0.1,0.5,0.7,0.5,0.8l0.6-0.1c0,0.1,0.2,0.2,0.6,0.3
		c0.9,0.3,2.6,0.8,1.4,1.3c0.3-0.1,0.7-0.3,1.1-0.1l-0.3,0.5c0.8,0,1.6,0.1,1.6,0.5c-0.5,0-0.8,0.2-1.1,0.4c2.4,0.4,1-1.2,3.6-0.5
		l-0.3,0.3l0.9-0.2l0.3,0.6c1.9-0.8,4.1-1,6.1-1c0.2,0,0.4,0.2,0.6,0.4l1,0.5c0.4,0.1,0.9,0.4,1.5,0.3l-0.1-0.5c0.7,0.4,3-1,4-0.1
		l0.2,0c0,0,0-0.1,0-0.1c0.6-0.3,1-0.2,1.3-0.1c0.3,0.2,0.5,0.5,0.9,0.6c0.8-0.2-0.6-0.2-0.2-0.6c1.3,0.4,1,0.6,2.6,1
		c0.1,0.3,2.6,0.7,4.2,0.7c1.8,0.5,4.7-0.2,6.9,0.5l0.4,0.2c0.9,0.6,2.7-0.6,3.8-0.3c0,0,0.6-0.3,1.3-0.4l0.5,0.3
		c0.8-0.1,0.2-0.1,0.7-0.4c0.2,0.1,0.6,0.2,0.9,0.2l1,0.1l0.3,0.3c0.3,0.3,0.6,0,0.6,0s0.3-0.4,0.8-0.2c0.5,0.2,0.6,0.1,0.6,0.1
		c1-0.3,2.2,0.4,2.2,0.4l1.8-0.5c0.2,0.1,0.5,0.3,0.7,0.2l-0.1-0.3c0.1,0,0.2-0.1,0.3-0.1l0.4-0.1c0.6,0.7,0.3,0.2,0.8,0.7
		c0.1-0.5,0.7,0.4,0.5,0.1c0.3-0.7,0.7,0.1,0.7-0.3c0.6,0.1,0.1-0.7,0.9-0.7c0.2,0.2,0.6-0.1,0.6-0.1c0-0.1,0.1-0.2,0.1-0.3
		c0.8,0.1,1.7,0.2,2.9,0.1c-0.2-0.1-0.2-0.2-0.2-0.3c3.6,0.1,5.8,0,8.9-0.9C75.9,16.8,78.5,16.2,77.5,15.9"/>
</g>
<path id="Fill-5" class="st5" d="M102.5,52.1c0.1-0.4-3.3,0.4-2,0.3c-0.1,0-0.2,0-0.3,0c-0.1,0-0.2,0-0.4,0c-0.1,0-0.2,0-0.4,0
	c-0.2,0-0.5,0-0.7,0c-0.4,0-0.8,0-1.2,0.1c-0.7,0.1-1.3,0.1-2,0.3c-0.6,0-1.2-0.1-1.4-0.2c-0.3-0.2-1.6-0.1-1.6-0.1
	c-3.3,1.1-5.2,0.3-8.5,0.3c-0.8,0-1.4-0.1-1.8-0.6L81.7,53c-0.2,0-0.4-0.1-0.5-0.1c-0.2,0-0.3-0.1-0.5-0.1c-0.2-0.1-0.4-0.1-0.5-0.2
	c-0.1,0-0.2-0.1-0.2-0.1c-0.1-0.1-0.2-0.1-0.3-0.2c-0.1-0.1,0.2-0.2,0.2-0.3c-0.1-0.1-0.5-0.1-0.5-0.2c-0.2,0.1-0.4,0.1-0.7,0.1
	c-0.2,0-0.4-0.2-0.5-0.2c-0.3,0-0.6,0-0.9,0c-0.2-0.6-0.3,0.3-0.5,0.2c-0.2,0-0.3,0-0.5,0c-0.1,0-0.1-0.4-0.2-0.4
	c-0.7,0-0.5,0.5-1,0.1c-0.4,0.4,0.3,0.4,0.2,0.7c-0.1,0.2-0.2,0.3-0.5,0.3c0,0,0.1-0.4-0.3-0.5c-0.5-0.2-0.5,0.1-0.5,0.1l-0.2-0.1
	l-0.3-0.1L73,51.6l-0.1,0.3c-0.1-0.1-0.2-0.2-0.3-0.3c-0.1-0.1-0.3-0.1-0.4-0.1c-0.1,0-0.2,0-0.3,0c-0.1,0-0.2,0-0.3,0
	c-0.1,0-0.1,0-0.2,0c-0.1,0-0.2,0-0.3,0c-0.1,0-0.2,0-0.2,0c0,0-0.1,0-0.1,0c-0.7,0-1-0.4-1.6-0.1l0-0.4c0.1-0.3,0-0.5,0.4-0.6
	c-0.4-0.3-0.7,0.7-1.2,0.9c-0.2,0.1,0-0.3-0.4-0.5c0,0,0-0.3,0.5-0.7C69.1,49.7,68,50,68,50c-0.2,0.3-0.2,0-0.4,0
	c-0.1,0-0.5,0.3-0.6,0.3c-0.2-0.1-0.5-0.2-0.7-0.4c-0.1,0-0.1-0.1-0.2-0.1c-0.3-0.1-0.5-0.2-0.8-0.3c-0.2,0-0.4,0-0.6,0.1
	c-0.3-0.6,0.7-0.5,0.9-0.3c-0.7-0.4,1.1-0.6-1-0.3l0.8-0.5c-0.3,0-0.7-0.3-0.9-0.6c0.4,0.4-0.3,0.6-0.6,0.1
	c-0.1-0.1-0.1-0.1-0.1-0.2c-0.1-0.3-0.3-0.5-0.4-0.7c0,0.1-0.1,0.2-0.1,0.4c0,0.2-0.5,0-0.2,0.4c-0.1,0.1-0.3,0.1-0.7,0
	c0.3-0.2,0-0.8-0.5-0.5c-0.6,0.1,0,0.3-0.7,0.1c0-0.4,0.6-0.1,0.5-0.7c-0.7,0.2-0.4,0-0.7-0.3L60,46.9c0,0.2-0.1,0.2-0.6,0.3
	c-0.5-0.3-0.5-0.4-0.3-0.6c0,0,0,0,0,0l0,0c0.3-0.2,1-0.5,0.8-1c1-0.2,1.6-0.2,1.4-0.5l-0.8-0.5c0.3-0.4-1.2-1.1,0-1.2
	c-0.5-0.3-1.1-0.5-1.7-0.6c0.4-0.2,0.8-0.2,0.8-0.5l-0.3,0l-0.7-0.3l-0.2,0.3l-0.4,0l-0.1,0l-0.1,0.3c-0.2,0-0.3-0.1-0.5-0.1
	c-0.3-0.1-0.7,0.4-1.1,0.3c-0.5-0.1-0.8-0.6-1.3-0.7c-1.4-0.6-0.9-0.1-1.3-0.1c0.2,0.2,0.6,0.4,0.5,0.7c-1.1,0-0.9-0.5-1-0.9
	c-0.1,0-0.2,0-0.3,0.1c-0.1,0-0.1,0.1-0.2,0.1c-0.1,0.1-0.2,0-0.3,0.1c-0.1,0.1-0.2,0.1-0.3,0.3c-0.1,0.3,0.1,0.2,0,0.3
	c0,0-0.1,0.1-0.1,0.1c0,0-0.3-0.1-0.4,0c-0.1,0.1,0.1,0.3,0,0.4c-0.5-0.3-0.6-0.7-0.9-1c-0.1-0.1-0.6-0.1-0.6-0.2
	c-0.2-0.7-0.6-0.2-1-0.2c-0.7,0.1-0.6,0.2-0.6,0.2c-0.8-0.8-1.2,0.3-2.2-0.4c0-0.2,1,0,0.8-0.4c-0.4,0-0.4-0.1-0.6-0.3
	c0,0-0.2,0-0.2,0c0,0,0,0-0.1-0.1c0,0-0.1-0.2-0.1-0.3c-0.2-0.2-0.4-0.1-0.8-0.1l0.3-0.2l0.1-0.1l0.3,0.1l0-0.2l0.2-0.1l0.1-0.1
	c-0.2,0-0.3-0.1-0.5-0.1c-0.1,0-0.3-0.3-0.6,0c-0.1,0-0.2,0-0.2-0.1c-0.1-0.1-0.2-0.2-0.1-0.3c0-0.1,0.1-0.1,0.1-0.2
	c-0.1,0.1-0.5-0.2-0.4,0.1c-0.1,0-0.1,0-0.2,0c-0.1,0-0.2,0-0.2,0c0.1-0.2,0.2-0.2-0.1-0.3c-0.3,0.2-0.3,0-0.5,0
	c-0.1,0-0.4-0.2-0.5-0.2c-0.2,0-0.1,0.2-0.3,0.1c-0.1,0-0.2-0.1-0.3-0.1c0.1,0.3-0.2-0.1-0.1,0.5c0,0,0,0,0,0c0,0-0.1,0-0.1,0
	c0,0-0.1,0-0.1,0c-0.3,0-0.6-0.1-1-0.1c-0.1,0-0.2,0-0.3,0c-0.5,0-1,0-1.4,0l0-0.4c-0.6-0.4-0.9,0-1.6-0.1c0,0-0.1,0-0.1,0
	c-0.1,0-0.2,0-0.2,0c-0.1,0-0.2,0-0.3,0c-0.1,0-0.1,0-0.2,0c-0.1,0-0.2,0-0.3,0c-0.1,0-0.2,0-0.3,0c-0.1,0-0.3,0-0.4,0.1
	c-0.1,0.1-0.3,0.1-0.4,0.2l-0.1-0.3l-0.3,0.1l-0.3,0.1l-0.2,0.1c0,0,0-0.3-0.5-0.1c-0.5,0.1-0.4,0.5-0.4,0.5
	c-0.3-0.1-0.4-0.2-0.4-0.4c-0.1-0.3,0.6-0.2,0.3-0.6c-0.6,0.3-0.2-0.2-1-0.2c-0.1,0-0.1,0.4-0.3,0.4c-0.2,0-0.3,0-0.5,0
	c-0.2,0-0.1-0.8-0.4-0.3c-0.3,0-0.6-0.1-0.9-0.1c-0.2,0-0.4,0.2-0.6,0.2c-0.2-0.1-0.4-0.1-0.7-0.2c0,0.1-0.4,0.1-0.5,0.2
	c-0.1,0.1,0.2,0.2,0.2,0.3c-0.1,0.1-0.2,0.1-0.3,0.2c-0.1,0-0.2,0.1-0.2,0.1c-0.2,0.1-0.3,0.1-0.5,0.1c-0.2,0-0.3,0.1-0.5,0.1
	c-0.2,0-0.4,0-0.6,0.1c-0.3,0-0.7,0-1,0.1c-0.3,0-0.7-0.1-1-0.1c-6.4-0.7-13.3,0.4-19,2.2c-0.9,0.1-2,1.4-3,2c1.4,0,1.5-0.5,2.8-0.7
	c1.1,0.1,1.6,1,2.5,1.4L7.7,43c1.3-0.8,0.9-0.1,1.9-1l3.8,0.9c0.4,0.5,4-0.6,3.1,0.8c0.2-0.2,0.4-0.6,1-0.5l0.1,0.8
	c0.8-0.2,1.6-0.4,1.9,0c-0.4,0.2-0.6,0.5-0.7,0.9c2.5-0.3,0-1.8,3-1.9l0,0.5l0.8-0.5l0.8,0.7c1.1-1.7,4.2,0.3,6-0.5
	c0.7-0.1,1.6,1,2.9,1l0-0.8c0.9,0.8,4.1,1.6,5.3,3.2c0,0,0,0,0,0l0.4,0c0,0,0,0,0,0c0,0,0-0.1,0-0.2c0.9-0.2,1.4-0.1,1.8,0.2l0,0
	c0,0,0,0,0,0c0.4,0.3,0.6,0.8,1.1,1.1c1.2-0.2-0.9-0.4-0.1-0.9c1.7,0.9,1.7-0.7,3.8,0.3c0.1,0.5,3.6,1.1,6,1.5
	c2.5,1.2,6.4,2.5,9.5,4.1l0.1-0.3c1.1,1.1,2.8,0.8,4.3,1.6l-0.7-0.6c1.2-0.2,1.7,0.3,2.7,0.3l0.7,0.5c1.2,0,0.3-0.1,1.2-0.3l0.4,0
	c1,0.3,1.6,0.1,2.6,0.8L70.4,55c1.7-0.1,3.1,0.8,4.6,0.2l0,0.3c1.9-0.2,4.1-0.1,6.1-0.1l0.6-0.1c0.9,0.7,3.2,0.4,3.6,0.5
	c0.3,0.4,0.4,0.3,0.2,0.5c1.4-0.1,0.5-0.7,2.1-0.6l0,0.2c2-0.4,3.5-0.4,6.3-0.6c0,0,0,0,0,0c0.2,0,0.4,0,0.8-0.2
	c0.7-0.2,1.3-1.3,2.1-0.5c0.6-0.1,1.1-0.3,1.6-0.5c0.5-0.2,0.5,0.1,1-0.1c0.1-0.1,0.3-0.2,0.6-0.4c0.1-0.1,0.2-0.2,0.3-0.2
	c0.1-0.1,0.2-0.1,0.2-0.1c0.1,0,0.3-0.1,0.4-0.1c0.1,0,0-0.1,0.1-0.2c0.1-0.1,0.4,0,0.5,0c0.1,0-0.1-0.2,0-0.3c0.1,0,0-0.3,0.1-0.3
	C102,52.2,102.3,52.3,102.5,52.1"/>
<path id="Fill-6" class="st5" d="M132.6,41.9c0-0.1-0.1-0.2-0.1-0.4l0.4,0c0.1-0.1-0.4,0-0.7-0.3c0-0.2-0.2-0.5,0.2-0.8
	c0.1,0.1,0.2,0,0.2-0.1c0,0,0,0,0.1,0c0,0,0,0,0,0c0,0,0,0,0,0c0,0,0.1,0,0.1,0c0-0.1-0.1-0.1-0.2-0.2c0-0.6,0.6-0.8,0.8-1.5
	c0.8-0.8,1.4-3,1.6-3.8c-0.1,0.4-0.5,0.2-0.5,0.2c0.4-0.5,0.3-1.3,0.3-1.9l-0.2,0.3c-0.4-0.3-0.2-0.6-0.4-0.9l0.4-0.3
	c-0.3-0.3-0.5,0-0.8-0.2c0.2-0.4-0.1-0.7-0.2-0.8c0.2-0.2,0.1-0.3,0.3-0.3c0-0.7-0.7-0.1-1-0.5l0.1-0.1c-0.9-1.2-2-2-3.3-2.5
	c0.1,0.1,0,0.1-0.1,0.3c-0.7-0.5-1.6-0.9-2.4-0.9c-0.2,0-0.3,0-0.5,0.1c-0.3,0.1-0.6,0.2-0.8,0.5c0.3,0,0.3,0.2,0.5,0.2
	c0.1,0,0.4-0.2,0.5-0.2c1,0.2,0.4,1,1.2,0.6c0,0.4,0.6,0.2,0.4,0.7c0.5,0.7,1.4,0.3,2,1c0,0.2,0.2,0.2,0,0.4l0.3-0.2
	c1.1,0.3,0.7,1.1,1.2,1.9c0.1,0.2,0.4,0.3,0.5,0.8l-0.8,0.2c0.9-0.1,0,0.6,0.6,0.8c-0.2,0.3-0.4,0.4-1.1,0.6c0.2,0,0.6-0.1,0.6,0.2
	c-0.1,0.1,0.1,0.2,0.2,0.4c-0.2,0-0.4-0.1-0.6-0.1c0,0.1,0.1,0.2-0.1,0.3c0.2,0.2,0.3,0,0.6,0.1c-0.2,0.4-0.8,0-1.3,0.1
	c-0.3-0.2-0.4-0.5-0.6-0.6l0.2,0.4c-0.3,0-0.5,0.2-0.8,0c-0.3,0.3,0,0.7,0.1,1c0.1,0,0.2,0,0.3,0c0.1,0.2-0.2,0.1-0.4,0
	c0.1,0.2,0.6,0.4,0.9,0.6c-0.5,0.1-1-0.2-1,0.2l0.4,0.2c-0.4,0,0.2,0.4-0.2,0.4c-0.1-0.1-0.6-0.4-0.6-0.1l-0.4-0.4
	c-0.3,0-0.1,0.6-0.4,0.3c0.3,0.5-0.1,0.5,0,0.9l-0.3-0.3c0.2,0.4-0.4,0.4-0.2,0.9c0,0.2,0.1,0.4,0.1,0.6c-0.2,0.1-0.5-0.5-0.4-0.3
	c-0.2,0.3-0.4,0.5-0.7,0.4c-0.4,0.2,0,0.8-0.2,1.1c-0.7,0.2-1.2,0.7-1.9,1.2c-0.1,0-0.3,0-0.4,0.1c-0.1,0.1-0.1,0.5-0.1,0.5
	c-0.1,0.1-0.4-0.1-0.5,0c-0.3,0.3-0.6,0.5-0.9,0.8c-0.2,0.1-0.1,0.2-0.3,0.5c0.1,0.3,0.6,0.7,1.1,0.5c0.4,0.2,0.5,0,0.5,0
	c0.2,0.3,1.1,0,1.1,0c0-0.1,1.2-0.2,1.9-0.6l0.1,0.3l0-0.4l0.4,0.3c-0.3-1.1,1-0.5,1.1-1.3c0.1-0.1,0.2,0,0.4,0l0.1,0.6
	c0.1-0.3,0.2-0.5,0.3-0.6c0.1,0,0.1,0,0.2-0.1l0,0c0.3-0.2,0.4,0.1,0.4,0c0.1-0.4,0.4,0.3,0.5-0.1l0.1,0.5c0.1-0.6,0.2-0.4,0.3-0.7
	c0,0,0.1,0,0.1,0c-0.1,0.1-0.1,0.2,0.3,0.2c0-0.1,0-0.1,0-0.2c0.1,0,0.2,0.1,0.3,0.1c0,0,0-0.1-0.1-0.1c0,0,0.1,0,0.1,0
	c0.1,0.2,0-0.1,0.1-0.1c0,0-0.1-0.1,0-0.1c0,0,0.1,0,0.1,0c0,0,0.1,0.3,0.1,0.2c0,0,0-0.1,0-0.1c0-0.1,0.5-0.2,0.5-0.2
	c0,0,0.2-0.1,0.2,0c0,0,0.1,0,0.2,0c0,0,0.1-0.1,0.1-0.1C132.8,41.9,132.6,42,132.6,41.9"/>
<path id="Fill-7" class="st6" d="M122.4,39.4c0,0-0.1,0-0.2,0H122v0.4h0.2c0.1,0,0.1,0,0.2,0c0.1,0,0.1-0.1,0.1-0.2
	C122.4,39.5,122.4,39.4,122.4,39.4z M122.2,39.2c0.1,0,0.2,0,0.3,0c0.1,0,0.2,0.1,0.2,0.3c0,0.1,0,0.2-0.1,0.2c0,0-0.1,0-0.2,0.1
	c0.1,0,0.1,0,0.2,0.1c0,0.1,0.1,0.1,0.1,0.2v0.1c0,0,0,0.1,0,0.1c0,0,0,0,0,0.1l0,0h-0.2c0,0,0,0,0,0s0,0,0,0l0,0v-0.1
	c0-0.1,0-0.2-0.1-0.2c0,0-0.1,0-0.2,0H122v0.4h-0.2v-1.1H122.2z M121.6,39.2c-0.2,0.2-0.2,0.4-0.2,0.6c0,0.2,0.1,0.4,0.2,0.6
	c0.2,0.2,0.4,0.2,0.6,0.2c0.2,0,0.4-0.1,0.6-0.2c0.2-0.2,0.2-0.4,0.2-0.6c0-0.2-0.1-0.4-0.2-0.6c-0.2-0.2-0.4-0.2-0.6-0.2
	C122,38.9,121.8,39,121.6,39.2z M122.9,40.5c-0.2,0.2-0.4,0.3-0.7,0.3c-0.3,0-0.5-0.1-0.7-0.3c-0.2-0.2-0.3-0.4-0.3-0.7
	c0-0.3,0.1-0.5,0.3-0.7c0.2-0.2,0.4-0.3,0.7-0.3c0.3,0,0.5,0.1,0.7,0.3c0.2,0.2,0.3,0.4,0.3,0.7C123.2,40,123.1,40.3,122.9,40.5z"/>
<path id="Fill-8" class="st7" d="M99.3,21.3c-1.1,0.1-2-0.9-1.6-1.4c0.7-0.9,2.8-2.1,4.5-2.1l2.1-0.3c0.6-0.1,1.9-0.2,0.8,0.4
	C104.1,18.6,100.5,21.2,99.3,21.3"/>
<path id="Fill-9" class="st7" d="M71.2,37.6c0.2,0.3,0.6,0.4,0.3,0.7c-0.9,0.8-2,1.8-3.2,1.4c-1.4-0.4-1.2-2.2-0.7-3.2
	c0.5-1.1,0.3-2.1,1.2-3c0.2-0.2,0-0.8,0.3-1.2c0.4-0.3,0.4-0.4,0.6-1c0.4-1.3,0.8-2.2,0.1-3.5c-0.1-0.3-0.4-0.4-0.6-0.5
	c-0.7-0.2-0.7,0.3-1,0.6c-0.7,0.7-1,1.6-1.7,2.3c-1.8,1.8-3.5,3.8-6.1,5.1c-0.2,0.1-0.2-0.9-0.1-1.1c3.1-2.2,4.4-4.2,5.7-6.7
	c0.4-0.7,0.5-1.2,0.4-1.8c-0.1-0.5-0.8-0.8-0.7-1.3c0.1-0.6,1.3-0.9,2.1-1.2c0.7-0.3,1.5-1.2,2.4-1.1c1.2,0.3-0.8,1.8,1.2,2.5
	c2.1,0.7,3.2,2.4,2.3,4.2l-0.1,0.1l0.1,0.1C72.7,32,69.5,34.8,71.2,37.6"/>
<path id="Fill-10" class="st7" d="M86.7,28.8c0-1-1.4-3.1-2.7-2.5c-4,1.9-4.4,1.7-6.8,4.7c-0.9,1.1-1.5,0-1.8,2.8
	c-0.3,2.3-1.4,4.5,1,6.3c0.5,0.4,1.4,0.6,2.4,0.5c1.1-0.1,2.3-0.8,2.9-1.3c0.8-0.8,1.6-1.1,2.1-2.3C85.5,33.7,86.8,32.4,86.7,28.8
	 M81.8,36.3c-0.7,0.5-0.6,1.7-1.7,1.5c-2.4-0.6-0.5-2.6-0.6-4.4c-0.1-1.6-0.2-2.9,2-2.7C85.2,31.1,83.8,34.5,81.8,36.3"/>
<path id="Fill-11" class="st7" d="M128.1,33.1c-1.2,1.5-2.4,3.1-4.6,4c-2.3,1-5.1,1.5-7.3,0.8c-0.5-0.2-0.6-0.2-1-0.2
	c-2-0.4-3.2-1.3-4.8-1.9l-1.7-1c-0.7,0.5-1.3,1.2-1.9,1.8c-1.3,1.4-2.1,2.8-3.3,4.2c-2.5,2.6-4.8,5.2-6.2,8.4
	c-0.2,0.6-0.7,0.9-1.8,1.2c-0.8,0.2-1.4,0.1-1.9,0.2c-0.5,0.1-0.6-0.5-1.3-0.4l-0.1-0.4L92,49.7c-0.8-0.8-0.2-1.8,0.5-2.6
	c1.1-1.1,2.5-1.9,3.9-3c1.3-1.1,2.3-2.1,3.4-3.2c1.9-1.9,3.8-3.7,4.9-6l0.4-0.2c0.7-1.5,2.8-2.5,1.7-4.2c-0.7-1.1-0.5-2.3-0.5-3.5
	l-0.5-0.9l-0.1-5c0.2-1.2,1.1-1.7,1.3-2.4c0.1-0.3,0-0.3,0.3-0.4c0.5-0.2,0.8-1.1,1.3-0.7c0.8,0.7,0.1,1.9-0.2,2.9
	c-0.1,0.2,0.3,0.2,0.3,0.4c0,0.1,0,0.3,0,0.5c0,0.4-0.3,0.7,0.1,0.9c1.4,0.9,1.1,1.3,0.9,2c-0.4,1.8-0.3,3.2,0.3,4.5l0.1,0.2
	c1-0.3,1.3-1,1.9-1.6c1-0.9,1.8-1.7,2.8-2.6c2.8-2.7,6.1-7.4,10.1-7c2.2,0.2,0.3,3.5-0.9,4.6c-1.8,1.6-4,3.1-6.5,3.9
	c-0.8,0.3-1.7,0.2-2.2,0.6c-1,0.9-1.9,1.8-2.7,2.8c-0.7,0.8-2.3,1.6-0.8,2.5c0.6,0.4,1.5,1.1,1.9,1.7c0.7,1.2,2.1,1.4,3.2,2.1
	c0.3,0.2,0.6-0.1,1,0c0.5,0.1,0.8-0.1,1.1,0c0.4,0.1,1,0.1,1.5,0.1c2.6-0.3,5.2-1.4,6.3-3.2c0.3-0.4,0.6-1,1-1.5
	c0.4-0.4-0.2-1.4,0.4-1.2C129.9,30.5,128.6,32.3,128.1,33.1"/>
<g id="Group-15">
	<g id="Clip-13">
	</g>
	<defs>
		<filter id="Adobe_OpacityMaskFilter_2_" filterUnits="userSpaceOnUse" x="18.6" y="18.6" width="20.8" height="17.4">
			<feColorMatrix  type="matrix" values="1 0 0 0 0  0 1 0 0 0  0 0 1 0 0  0 0 0 1 0"/>
		</filter>
	</defs>
	<mask maskUnits="userSpaceOnUse" x="18.6" y="18.6" width="20.8" height="17.4" id="mask-4_1_">
		<g class="st8">
			<polygon id="path-3_1_" class="st1" points="0,0 39.4,0 39.4,49.5 0,49.5 			"/>
		</g>
	</mask>
	<path id="Fill-12" class="st9" d="M31.2,33.8c-1.3-0.4-2-2-2.3-3.2c-0.1-0.4-0.7,0-1,0.2c-2.2,1.8-3.9,4.2-6.9,5
		c-0.9,0.3-2.2,0.2-2.4-0.7c-0.2-1.1,0.2-2.3,0.7-3.4c0.6-1.1,1.1-2.2,1.6-3.3c0.9-1.7,1.5-3.5,2.7-5c1.5-2.1,3.5-3.8,6.1-4.8
		c1.1-0.4,1.3,0.8,1.1,1.4c-0.4,1.8-1.4,4.3-3.5,4.8c-1.2,0.2-2.2,0.3-2.8,1.1c-0.7,1.1-1.1,2.3-1.5,3.7c-0.3,1.1-1,2.8,0,2.9
		c2.2,0.1,3.8-3.1,5.2-4.8c1-1.3,1.7-2.6,2.6-3.9l0-0.5c1.4-1,2.3-2.7,4.1-2.6c1.1,0.1-0.4,1.4-0.5,2.3c-0.1,2.5-1.6,4.7-0.5,6.9
		c0.4,0.9,2.1,0.8,3.2,0.6c0.6-0.2,1.1-0.6,1.8-0.6c0.6,0,0.4,1.1,0,1.4C36.8,32.8,34,34.7,31.2,33.8"/>
	<defs>
		<filter id="Adobe_OpacityMaskFilter_3_" filterUnits="userSpaceOnUse" x="0" y="0" width="31" height="49.4">
			<feColorMatrix  type="matrix" values="1 0 0 0 0  0 1 0 0 0  0 0 1 0 0  0 0 0 1 0"/>
		</filter>
	</defs>
	<mask maskUnits="userSpaceOnUse" x="0" y="0" width="31" height="49.4" id="mask-4_2_">
		<g class="st10">
			<polygon id="path-3_2_" class="st1" points="0,0 39.4,0 39.4,49.5 0,49.5 			"/>
		</g>
	</mask>
	<path id="Fill-14" class="st11" d="M5.9,42.5C5.6,43,4.6,44,3.6,43.9C3.2,43.2,3,42.5,2.7,42c-0.2-0.5-0.2-1.8,0-2
		c0.3-0.5,2.3-0.3,3-0.3c0,0,0.1-0.2,0.4-0.1l0.8,0.1C6.5,40.6,6,42.3,5.9,42.5 M31,48.2c-0.1-0.4-0.4-1.1-0.5-1.4
		c-0.2-0.4-0.6-1-0.8-1.1c-0.4-0.4-2.5-0.3-2.9-0.3c-0.2,0-0.6,0-0.9,0c-0.1,0-0.4-0.1-0.6-0.2c-0.4-0.1-0.6-0.2-1-0.3
		c-0.5-0.4-1-0.8-1.5-1.2c-0.3-0.2-0.8-0.4-1.1-0.6c-0.1-0.2-0.2-0.3-0.3-0.4c-0.1-0.1-0.3-0.2-0.4-0.2c-0.1-0.1-0.1-0.3-0.2-0.5
		c0,0-0.1,0-0.2,0c-0.6-0.6-1.5-1.4-2.8-1.7c0-0.1-0.1-0.2-0.2-0.2c-0.3-0.1-0.6-0.2-0.8-0.4c0.1,0,0.3,0,0.5,0l-0.5-0.1
		c-0.2-0.1-0.4-0.1-0.6-0.2c-0.1,0-0.3-0.1-0.4-0.1c-0.2-0.1-0.3-0.2-0.5-0.3c-0.5-0.1-1.4-0.4-1.6-0.4c-0.2,0-1.2-0.2-1.8-0.2
		c-0.2-1,0.4-1.5,0.6-2.6c0-0.2,0.2-0.3,0.2-0.4c0.1-0.3,0.1-0.8,0.2-1c0.1-0.4,0.4-0.9,0.4-1.3c0-0.1,0-0.2,0-0.3
		c0.3-0.6,0.4-1.7,0.4-1.8c0.3-1,0.6-2.3,0.7-3.1c0.1-0.5,0.3-1.1,0.4-1.5c-0.1,0,0.1-0.7,0.1-0.7c0-0.1,0-0.2,0.1-0.3
		c0-0.1,0-0.1,0-0.2c0-0.2,0-0.4,0-0.6c0,0,0,0,0-0.1c0,0,0-0.1,0-0.1c0-0.1,0.1-0.2,0.1-0.3c0-0.2,0.1-0.3,0.2-0.5
		c0-0.1,0.1-0.1,0.1-0.1c0,0,0-0.1,0-0.2c0-0.1,0-0.2,0-0.3c0-0.1,0-0.1,0-0.2c0-0.1,0-0.1,0-0.2c0.1-0.3,0.2-0.6,0.3-0.9
		c0-0.1,0-0.2,0.1-0.2c0-0.1,0.1-0.1,0.1-0.2c0-0.1,0-0.2,0.1-0.3c0.1-0.2,0.3-0.3,0.3-0.4c0-0.1,0-0.2,0-0.3c0-0.1,0.1-0.2,0.1-0.4
		c0-0.1,0.1-0.2,0.1-0.3c0,0,0-0.1,0-0.1c0-0.1,0.1-0.3,0.2-0.4c0-0.1,0.1-0.2,0.1-0.2c0-0.1,0-0.3,0.1-0.5l0.2-0.2
		c0.1-0.4,0.1-0.8,0.2-1.1c0.1-0.1,0.1-0.3,0.2-0.4c0-0.1,0.1-0.2,0.1-0.3c0,0,0-0.1,0-0.1c0-0.1,0-0.1,0-0.2c0,0,0,0,0-0.1
		c0-0.1,0-0.1,0-0.2c0-0.1,0-0.1,0.1-0.1c0.1-0.1,0.1-0.2,0.1-0.3c0-0.1,0-0.2,0-0.2c0,0,0-0.1,0.1-0.1c0.1-0.1,0.1-0.3,0.2-0.4
		c0.1-0.3,0.3-0.6,0.4-0.9c0.3-0.6,0.6-1.2,0.9-1.7c0.1-0.3,0.3-0.6,0.4-0.9c0.7-1.4,1.4-2.6,2.2-4c0.9-1.5,2-2.6,2.7-4
		c0.4-1,0.6-2.1-0.3-2.6l-0.2,0.2l-0.2-0.3c-0.6,0.2-0.9-0.3-1.3-0.1c-0.4,0.2-0.7,0.2-1.4,0.6c-0.9,0.6-2.2,1-2.2,1.6
		c-0.3,3.5-1.6,6.7-3.2,10c-0.5,1-0.8,2-1.1,3.1c-0.1,0.1-0.1,0.2-0.1,0.2c0,0,0,0,0,0.1c0,0.1-0.1,0.3-0.2,0.4c0,0,0,0,0,0
		c0,0,0,0,0,0c-0.1,0.4-0.3,0.7-0.4,1.1c-0.2,0.4-0.3,1.4-0.5,2.3c-0.1,0.3-0.2,0.6-0.3,0.8c0,0.1,0,0.2,0,0.3
		c-0.1,0-0.3,0.1-0.3,0.2c0,0.2,0,0.5,0,0.6c-0.3,0.7-0.7,1.6-0.9,2.3c-0.1,0.4,0,0.8-0.1,1.2c0,0.2-0.2,0.4-0.3,0.6
		c-0.2,0.4-0.3,1-0.4,1.3c-0.4,0.9-0.8,2.9-0.9,3c0,0.1-0.7,2.1-0.7,2.2c-0.2,0.7-0.3,1.3-0.4,1.8c-0.3,1.2-0.9,2.7-1.5,3.9
		c0,0.1-0.1,0.3-0.4,0.3c-0.2,0-0.6,0-0.7,0c-0.7,0.1-2.4,0-2.9,0.1c-2,0.6-2.7,1.1-3.2,2.1c-0.1,0.3-0.3,0.8-0.3,1
		c0,0.3-0.1,0.6,0,0.8c0.2,0.3,0.3,0.7,0.4,0.9c0.1,0.2,0.5,0.5,0.5,0.7c0.1,0.2,0,0.6,0.1,0.7c0.5,0.7,1.1,1.5,1.6,2
		c0.2,0.2,0.6,0.4,0.9,0.5c0.3,0.1,0.7,0.3,1,0.4c0.3,0,0.5,0,0.8,0c0.4,0,0.9,0,1.3,0c0.2,0,0.4,0,0.6-0.1c0.1,0,0.1,0,0.2,0
		c0.1,0,0.2-0.1,0.3-0.1c0.1,0,0.3-0.1,0.4-0.2c0.1,0,0.2-0.1,0.3-0.1c0.1-0.1,0.1,0,0.1-0.2c0-0.2,0.1-0.4,0.2-0.6
		c0-0.2,0-0.4,0.1-0.6C8.9,45.3,9,45.1,9,45c0-0.1,0.1-0.2,0.1-0.3c0-0.1-0.1-0.2-0.1-0.2c0.2-0.2,0.4-0.4,0.4-0.6
		c0.1-0.3,0.4-0.9,0.5-1.3c0.1-0.3,0.1-0.7,0.2-1c0.1-0.3,0.2-0.5,0.3-0.7c0.4-0.1,0.7,0,1,0c0.2,0,0.8,0.2,1,0.2
		c0.1,0,0.2,0.1,0.3,0.1c1.1,0.2,2.3,0.9,3.4,1.6c0.2,0.1,0.5,0.3,0.6,0.3c0.2,0.2,0.5,0.5,0.6,0.7c0.2,0.3,1.5,1.1,2.3,1.5
		c1.1,0.8,3,1.9,4.4,2.5l0.1,0.2c1.1,0.7,2.3,1,3.1,1c0.1,0,0.1,0.1,0.1,0.1c0.2,0,0.3-0.1,0.5-0.1c0.1,0,0.3,0.2,0.4,0.2
		c0.2,0,0.6-0.1,1,0c0.6,0.2,1.3,0.3,1.5-0.2C30.8,49,31,48.5,31,48.2"/>
</g>
<path id="Fill-16" class="st7" d="M59.2,46.2c-0.2,0.2-0.5,0.6-0.8,0.9c-1.2,1-3.2,2.7-5.6,4c-0.4,0.2-0.8,0.6-1.3,0.9
	c-1.4,0.6-3.5,1.7-4.7,1.9c-0.2,0-0.8,0.3-1.3,0.5c-0.4,0.1-0.9,0.1-1.2,0.1c-0.2,0-2.1-0.4-2.8-0.6c-0.6-0.2-1.6-0.9-2.2-1.3
	c-0.2-0.1-0.4-0.7-0.6-0.9c-0.2-0.3-0.5-0.8-0.6-1.1c-0.6-1.5-0.8-3-0.6-4.3c0.2-2.2,0.6-4.4,1.2-6.4l0.9-3.2
	c0.1-0.2,0.5-0.9,0.6-1.4c0.4-2.2,1.9-4.9,2.6-6.3c0.2-0.3,0.3-0.8,0.4-1.1c0.1-0.2,0.4-0.6,0.6-0.9c0.2-0.4,0.3-0.9,0.5-1.3
	c0.4-0.5,0.8-1,1-1.5c0.1-0.3,0.3-0.8,0.5-1.1c0.8-0.8,1.2-2.3,2.1-3.1c0-0.1,0-0.5,0.2-0.6c0.9-1.3,1.3-2.6,2.1-3.8
	c0.2-0.2,0.2-0.7,0.4-1c1.5-2.3,2.2-3.9,3.3-5.3c0.3-0.4,0.6-1.2,0.9-1.8c0.3-0.4,0.7-0.8,1-1.3c1.3-1.8,2.5-3.2,4.6-4.2
	c0.3-0.1,0.6-0.4,0.9-0.5C61.4,1.2,62.5,1,62.8,1c0.8,0,1.9,0.5,2.5,0.9c0.2,0.2,0.7,0.4,1.1,0.6c0.1,0.1,0.2,0.4,0.3,0.4
	c0.7,0.3,1.3,1,1.6,1.6c0.1,0.1,0.3,0.4,0.5,0.4c0.2,0,0.9,2.2,0.9,2.7C69.8,7.8,70,8,70,8.2c0,0.7-0.3,1.8-0.4,2.1
	c-0.1,0.2-0.3,0.7-0.5,1.1c-0.1,0.1,0.1,0.4-0.1,0.6c-0.3,0.3-0.7,0.7-0.8,1c-0.3,0.6-0.5,1.3-0.7,1.9c-0.1,0.4-0.1,0.8-0.1,1.3
	c-0.1,0.2-0.2,0.5-0.4,0.7c-0.4,0.9-0.2,2.2-1.4,3.5c-0.2,0.2-0.6,0.3-0.8,0.5c-0.8,0.5-1,0.8-2,0.8c-0.2,0-1.5-0.7-1.4-1.1l1.6-5.5
	c0.1-0.2,0.1-0.2,0.2-0.3c0.4-1.1,1.4-4,1.5-4.2c0.1-0.2,0.3-1.1,0.1-1.5c-0.1-0.2-0.3-0.4-0.4-0.6c-0.1-0.2-0.1-0.5-0.2-0.8
	c0-0.1,0.1-0.3,0.2-0.4c-1-0.5-1.7-1.7-2.6-1.7c-1.3,0-2.2,1.9-2.5,2.3C59,8,58.6,8.3,58.5,8.5c-1,1.4-1.1,2.6-2.2,4.3
	c-0.2,0.2-0.5,0.4-0.7,0.6c-0.2,0.2-0.2,0.6-0.4,0.9c-1.5,2.2-3.4,6.2-4.9,8.2c-0.1,0.1-0.4,0.3-0.5,0.5c-0.4,0.5-0.4,1-0.8,1.5
	c-0.1,0.1-0.4,0.2-0.5,0.4c-0.1,0.2,0,0.6-0.2,0.9c-0.3,0.3-0.7,0.6-1,0.9c-0.4,0.7-0.6,1.6-0.9,2.2c-0.2,0.2-0.5,1.1-0.7,1.5
	c-0.2,0.4-0.2,0.6-0.5,0.9c-0.1,0,0.1,0.2,0.1,0.4c0,0.5-0.3,1-0.6,1.5c-0.1,0.2-0.1,0.5-0.2,0.8c-0.1,0.2-0.4,0.5-0.6,0.7
	c-0.1,0.3,0,0.5-0.1,0.8c-0.1,0.2-0.4,0.4-0.4,0.6c-0.1,0.2,0.1,0.8,0,1.1c-0.3,1.3-1.2,3.5-1.3,3.7c-0.1,0.2,0,0.4,0,0.7
	c-0.2,0.6-0.5,1.6-0.6,2.1c0,0.2,0.1,0.6,0.1,0.9c0,0.2-0.2,0.6-0.2,0.9c0.1,2.1-1.3,2.6-0.2,4.3c0,0,0.1,0.3,0.2,0.4
	c0.4,0.6,1.5,1.3,2.4,1.5c0.4,0.1,1.1,0.2,1.3,0.2l0.8,0c0.7,0,2.2,0.1,3.3-0.5c1.5-0.7,2.8-1.4,4.5-2.6c1.1-0.8,1.7-1.3,2.7-2.1
	c0.6-0.5,1.4-0.6,2-1.4c0.2-0.2,0.3-0.5,0.6-1c0.1-0.1,0.6-0.1,0.8-0.3c0.1-0.1-0.1-0.6,0-0.7c0.1,0,0.7-0.3,0.9-0.3
	c0.4,0,0.9,0.5,0.8,0.8C61.2,44.5,59.4,45.9,59.2,46.2"/>
<path id="Fill-17" class="st7" d="M100.4,36.9c-0.2,0.4-0.6,0.9-0.9,1.1c-1.7,1.2-4.1,2.3-6.1,1.5c-2.8-1.1,1.7-6.5-6.2-1.1
	c-2.2,1.5,2.5-3.3,3.9-5.1c0.3-0.4,0.9-0.6,1.1-1.2c0.5-1.1,0.9-1.5,1.6-2.6c0.7-1.2,2.6-2.1,4.3-2.4l0.4,0.5c-0.6,2.1-2,4.1-2,6.3
	l0,2.3c-0.1,0.8,0.4,1.3,1.1,1.3c1.2-0.1,1.5-1.2,2.8-1.5C100.6,35.9,100.6,36.5,100.4,36.9"/>
</svg>
